<svg width="19" height="20" viewBox="0 0 19 20" fill="none" xmlns="http://www.w3.org/2000/svg">
<g id="search">
<path id="Vector" fill-rule="evenodd" clip-rule="evenodd" d="M14.3233 13.433C15.5703 11.8254 16.158 9.80304 15.9668 7.77746C15.7757 5.75189 14.82 3.87522 13.2943 2.52925C11.7685 1.18328 9.78735 0.469119 7.75375 0.532047C5.72015 0.594975 3.7869 1.43027 2.34731 2.868C0.906468 4.30673 0.068442 6.24072 0.00401015 8.27586C-0.0604217 10.311 0.65359 12.2941 2.00054 13.8211C3.34749 15.3481 5.22601 16.304 7.25329 16.4941C9.28056 16.6841 11.304 16.094 12.9113 14.844L12.9543 14.889L17.1963 19.132C17.2892 19.2249 17.3995 19.2986 17.5209 19.3489C17.6423 19.3992 17.7724 19.4251 17.9038 19.4251C18.0352 19.4251 18.1653 19.3992 18.2867 19.3489C18.4081 19.2986 18.5184 19.2249 18.6113 19.132C18.7042 19.0391 18.7779 18.9288 18.8282 18.8074C18.8785 18.686 18.9044 18.5559 18.9044 18.4245C18.9044 18.2931 18.8785 18.163 18.8282 18.0416C18.7779 17.9202 18.7042 17.8099 18.6113 17.717L14.3683 13.475C14.3537 13.4606 14.3387 13.4466 14.3233 13.433V13.433ZM12.2473 4.283C12.8119 4.83848 13.2609 5.50025 13.5685 6.23014C13.8761 6.96002 14.0361 7.74358 14.0393 8.53562C14.0425 9.32766 13.8889 10.1125 13.5873 10.8449C13.2857 11.5772 12.8421 12.2426 12.282 12.8027C11.7219 13.3628 11.0565 13.8064 10.3242 14.108C9.59181 14.4096 8.80697 14.5632 8.01493 14.56C7.2229 14.5568 6.43934 14.3968 5.70945 14.0892C4.97956 13.7816 4.31779 13.3326 3.76231 12.768C2.65223 11.6397 2.03297 10.1184 2.03941 8.53562C2.04586 6.9528 2.67749 5.43664 3.79672 4.31741C4.91596 3.19818 6.43211 2.56654 8.01493 2.5601C9.59775 2.55365 11.119 3.17292 12.2473 4.283Z" fill="black"/>
</g>
</svg>
